<?xml version="1.0" encoding="utf-8"?>
<!-- Generator: Adobe Illustrator 22.0.1, SVG Export Plug-In . SVG Version: 6.00 Build 0)  -->
<svg version="1.1" id="Layer_1" xmlns="http://www.w3.org/2000/svg" xmlns:xlink="http://www.w3.org/1999/xlink" x="0px" y="0px"
	 viewBox="0 0 278 232" style="enable-background:new 0 0 278 232;" xml:space="preserve">
<style type="text/css">
	.st0{fill:url(#SVGID_1_);}
	.st1{fill:url(#SVGID_2_);}
	.st2{fill:none;stroke:#FFFFFF;stroke-width:2;}
	.st3{fill:url(#SVGID_3_);}
	.st4{fill:url(#SVGID_4_);}
</style>
<linearGradient id="SVGID_1_" gradientUnits="userSpaceOnUse" x1="138.661" y1="234" x2="138.661" y2="3" gradientTransform="matrix(1 0 0 -1 0 234)">
	<stop  offset="3.650000e-02" style="stop-color:#BD385B"/>
	<stop  offset="0.3906" style="stop-color:#9A2762"/>
	<stop  offset="0.651" style="stop-color:#8A1F66"/>
	<stop  offset="0.9688" style="stop-color:#72146B"/>
</linearGradient>
<path class="st0" d="M10,0h257.3c5.5,0,10,4.5,10,10v211c0,5.5-4.5,10-10,10H10c-5.5,0-10-4.5-10-10V10C0,4.5,4.5,0,10,0z"/>
<g>
	
		<linearGradient id="SVGID_2_" gradientUnits="userSpaceOnUse" x1="89.6135" y1="112.7308" x2="104.7822" y2="72.8458" gradientTransform="matrix(1 0 0 -1 0 234)">
		<stop  offset="0.625" style="stop-color:#FFFFFF;stop-opacity:0"/>
		<stop  offset="1" style="stop-color:#FFFFFF"/>
	</linearGradient>
	<path class="st1" d="M60.1,164.5l40.4-14.6l40.4-14.6L70.7,174c-0.4,0.2-1,0.2-1.4-0.2L60.1,164.5z"/>
	<path class="st2" d="M140.9,135.2l-92.1,9 M140.9,135.2l-88.5,7.3 M140.9,135.2l-78.7-3.3 M140.9,135.2L70.7,174 M140.9,135.2
		l-40.4,14.6l-40.4,14.6 M60.1,164.5l9.3,9.3 M60.1,164.5l-17.8,6.5 M34.4,167.4l13.4-22.6 M34.4,167.4c-0.4,0.6-0.1,1.5,0.7,1.7
		 M34.4,167.4l-0.1,0.2c-0.3,0.6,0,1.3,0.6,1.5l0.2,0 M47.9,144.8c0.2-0.3,0.5-0.5,0.9-0.6 M47.9,144.8L47.9,144.8
		c0.2-0.3,0.5-0.5,0.8-0.5l0.1,0 M52.3,142.6c-1.1,0.1-1.7-1.3-0.8-2 M52.3,142.6l-0.4,0c-1,0.1-1.5-1.1-0.7-1.8l0.3-0.3
		 M51.5,140.6l9.8-8.4 M61.4,132.2c0.2-0.2,0.5-0.3,0.8-0.3 M61.4,132.2L61.4,132.2c0.2-0.2,0.5-0.3,0.7-0.3l0.1,0 M70.7,174
		c-0.4,0.2-1,0.2-1.4-0.2 M70.7,174L70.7,174c-0.5,0.3-1,0.2-1.3-0.1l-0.1-0.1 M42.2,170.9c-0.2,0.1-0.5,0.1-0.7,0 M42.2,170.9
		L42.2,170.9c-0.2,0.1-0.5,0.1-0.7,0l0,0 M41.5,171l-6.4-1.8"/>
</g>
<g>
	
		<linearGradient id="SVGID_3_" gradientUnits="userSpaceOnUse" x1="207.7482" y1="120.8432" x2="216.8442" y2="96.9245" gradientTransform="matrix(1 0 0 -1 0 234)">
		<stop  offset="0.625" style="stop-color:#FFFFFF;stop-opacity:0"/>
		<stop  offset="1" style="stop-color:#FFFFFF"/>
	</linearGradient>
	<path class="st3" d="M190,139.1l48.5-17.5l-42.1,23.2c-0.3,0.1-0.6,0.1-0.8-0.1L190,139.1z"/>
	<path class="st2" d="M238.5,121.5L190,139.1 M238.5,121.5l-55.3,5.4 M238.5,121.5l-53.1,4.4 M238.5,121.5l-47.2-2 M238.5,121.5
		l-42.1,23.2 M190,139.1l5.5,5.6 M190,139.1l-10.7,3.9 M174.7,140.8l8.1-13.6 M174.7,140.8c-0.2,0.4,0,0.9,0.4,1 M174.7,140.8
		L174.7,140.8c-0.2,0.4,0,0.9,0.4,1l0,0 M182.7,127.3c0.1-0.2,0.3-0.3,0.5-0.3 M182.7,127.3L182.7,127.3c0.1-0.2,0.3-0.3,0.5-0.3
		l0,0 M185.4,125.9c-0.7,0.1-1-0.8-0.5-1.2 M185.4,125.9L185.4,125.9c-0.7,0.1-1-0.8-0.5-1.2l0,0 M184.9,124.7l5.9-5 M190.8,119.7
		c0.1-0.1,0.3-0.2,0.5-0.2 M190.8,119.7L190.8,119.7c0.1-0.1,0.3-0.2,0.5-0.2l0,0 M196.4,144.8c-0.3,0.1-0.6,0.1-0.8-0.1
		 M196.4,144.8L196.4,144.8c-0.3,0.1-0.6,0.1-0.8-0.1l0,0 M179.3,142.9c-0.1,0-0.3,0.1-0.4,0 M179.3,142.9L179.3,142.9
		c-0.1,0-0.3,0.1-0.4,0l0,0 M178.9,143l-3.9-1.1"/>
</g>
<g>
	
		<linearGradient id="SVGID_4_" gradientUnits="userSpaceOnUse" x1="140.1163" y1="180.9377" x2="147.7093" y2="160.9718" gradientTransform="matrix(1 0 0 -1 0 234)">
		<stop  offset="0.625" style="stop-color:#FFFFFF;stop-opacity:0"/>
		<stop  offset="1" style="stop-color:#FFFFFF"/>
	</linearGradient>
	<path class="st4" d="M124.2,75.1l42.6-15.5l-37.2,20.2c-0.2,0.1-0.5,0.1-0.7-0.1L124.2,75.1z"/>
	<path class="st2" d="M166.9,59.6l-42.6,15.5 M166.9,59.6L118.5,65 M166.9,59.6l-46.5,4.5 M166.9,59.6l-41.3-1 M166.9,59.6
		l-37.2,20.2 M124.2,75.1l4.8,4.6 M124.2,75.1l-9.4,3.4 M110.8,76.8l7.2-11.5 M110.8,76.8c-0.2,0.3,0,0.7,0.3,0.8 M110.8,76.8
		L110.8,76.8c-0.2,0.3,0,0.7,0.3,0.8l0,0 M118,65.3c0.1-0.2,0.3-0.3,0.5-0.3 M118,65.3L118,65.3c0.1-0.2,0.3-0.3,0.5-0.3l0,0
		 M120.4,64.1c-0.6,0.1-0.9-0.6-0.4-1 M120.4,64.1L120.4,64.1c-0.6,0.1-0.8-0.6-0.4-1l0,0 M120,63.1l5.2-4.3 M125.2,58.8
		c0.1-0.1,0.3-0.1,0.4-0.1 M125.2,58.8L125.2,58.8c0.1-0.1,0.3-0.1,0.4-0.1l0,0 M129.7,79.8c-0.2,0.1-0.5,0.1-0.7-0.1 M129.7,79.8
		L129.7,79.8c-0.2,0.1-0.5,0.1-0.7-0.1l0,0 M114.8,78.5c-0.1,0-0.2,0-0.4,0 M114.8,78.5L114.8,78.5c-0.1,0-0.2,0-0.4,0l0,0
		 M114.4,78.6l-3.4-0.9"/>
</g>
</svg>
