<svg width="641" height="199" fill="none" xmlns="http://www.w3.org/2000/svg"><path d="M641 99.835V23.947c0-6.351-4.224-12.442-11.743-16.933C621.737 2.523 611.539 0 600.905 0H40.095C29.46 0 19.263 2.523 11.743 7.014 4.224 11.504 0 17.596 0 23.947v76.398c0 4.634 2.252 9.168 6.483 13.053 4.23 3.885 10.259 6.952 17.352 8.83l282.139 74.701c5.133 1.362 10.686 2.065 16.303 2.065 5.616 0 11.169-.703 16.302-2.065l278.032-74.573c7.268-1.95 13.437-5.113 17.764-9.109 4.328-3.995 6.628-8.653 6.625-13.412z" fill="#fff"/></svg>