<svg width="641" height="210" fill="none" xmlns="http://www.w3.org/2000/svg"><path d="M0 104.64v80.083c0 6.703 4.224 13.13 11.743 17.869 7.52 4.739 17.718 7.402 28.352 7.402h560.81c10.634 0 20.832-2.663 28.352-7.402 7.519-4.739 11.743-11.166 11.743-17.869v-80.621c0-4.89-2.252-9.675-6.483-13.775s-10.259-7.336-17.352-9.318L335.026 2.18C329.893.742 324.34 0 318.723 0c-5.616 0-11.169.742-16.302 2.18L24.389 80.873c-7.268 2.058-13.437 5.396-17.764 9.613C2.297 94.703-.003 99.618 0 104.64z" fill="#fff"/></svg>